<?xml version="1.0" standalone="no"?>
<!DOCTYPE svg PUBLIC "-//W3C//DTD SVG 20010904//EN"
 "http://www.w3.org/TR/2001/REC-SVG-20010904/DTD/svg10.dtd">
<svg version="1.0" xmlns="http://www.w3.org/2000/svg"
 width="2048.000000pt" height="2048.000000pt" viewBox="0 0 2048.000000 2048.000000"
 preserveAspectRatio="xMidYMid meet">

<g transform="translate(0.000000,2048.000000) scale(0.100000,-0.100000)"
fill="#000000" stroke="none">
<path d="M9790 18640 c-2367 -135 -4526 -1268 -5978 -3138 -1280 -1647 -1870
-3708 -1662 -5797 213 -2128 1254 -4075 2917 -5453 273 -226 695 -524 998
-704 988 -589 2078 -961 3205 -1092 383 -45 504 -51 965 -51 448 0 578 7 925
46 2092 238 3993 1271 5348 2906 226 273 524 695 704 998 1035 1736 1385 3775
992 5770 -483 2449 -2116 4574 -4369 5685 -935 462 -1880 723 -2940 815 -210
19 -886 28 -1105 15z m716 -1288 c7 -4 56 -110 109 -237 54 -126 104 -245 111
-262 l14 -33 -53 0 -54 0 -25 58 -25 59 -99 6 c-188 13 -179 15 -208 -48 l-25
-55 -50 0 c-28 0 -51 2 -51 5 0 3 57 120 127 260 l128 255 45 0 c25 0 50 -4
56 -8z m-516 -29 c35 -32 44 -73 55 -279 11 -198 -1 -208 -252 -225 -250 -17
-253 -14 -272 248 -13 181 -7 216 44 249 29 19 131 30 292 33 99 1 104 0 133
-26z m1173 -22 c82 -12 148 -26 163 -36 32 -20 47 -61 39 -102 -5 -26 -11 -33
-28 -33 -45 0 -67 12 -67 35 0 12 -6 28 -14 34 -21 18 -245 44 -261 31 -20
-17 -29 -80 -13 -96 7 -7 74 -27 148 -44 221 -50 229 -58 210 -197 -9 -62 -18
-88 -35 -108 -30 -32 -51 -32 -265 -1 -154 22 -166 26 -188 52 -21 24 -24 35
-18 77 3 27 7 51 8 53 2 1 22 0 46 -3 40 -5 42 -7 42 -39 0 -43 12 -49 135
-63 55 -7 109 -14 120 -17 11 -2 26 0 34 5 19 12 31 97 17 116 -6 8 -77 30
-158 48 -158 37 -194 53 -204 92 -11 45 12 165 37 191 28 30 63 30 252 5z
m484 -85 c4 -3 -74 -409 -94 -494 -5 -21 -9 -23 -47 -17 -22 4 -45 10 -49 14
-4 4 15 117 43 252 27 134 50 248 50 253 0 8 88 1 97 -8z m-2632 -218 c92
-123 169 -228 172 -234 2 -6 -18 -16 -44 -22 -47 -11 -48 -11 -73 20 -64 80
-40 75 -193 43 l-136 -29 -11 -49 c-5 -26 -10 -54 -10 -62 0 -8 -20 -18 -51
-24 -29 -6 -53 -10 -54 -9 -1 2 17 86 40 188 23 102 52 228 64 281 l22 96 42
10 c23 6 47 11 53 12 6 0 87 -99 179 -221z m3065 117 c171 -48 190 -61 190
-125 0 -71 -14 -82 -77 -60 -25 9 -29 15 -25 39 2 16 -1 32 -7 36 -19 11 -214
65 -238 65 -17 0 -25 -9 -34 -41 -9 -27 -9 -46 -3 -56 5 -9 72 -39 148 -68
156 -60 186 -82 186 -134 0 -47 -34 -158 -56 -182 -26 -29 -82 -24 -259 25
-173 48 -205 68 -205 125 0 48 20 93 39 86 9 -4 29 -9 44 -12 26 -5 28 -9 22
-39 -8 -43 8 -53 141 -89 133 -35 145 -33 162 29 12 40 12 51 0 62 -7 7 -74
36 -148 64 -137 52 -190 88 -190 128 0 53 48 176 72 185 32 13 94 3 238 -38z
m-3629 -254 c38 -134 68 -248 67 -253 -6 -17 -88 -39 -93 -25 -2 7 -34 116
-70 242 -36 127 -68 236 -70 242 -3 8 14 18 43 27 26 7 48 13 50 11 1 -1 34
-111 73 -244z m-335 114 c21 -14 64 -93 64 -119 0 -8 -12 -19 -27 -24 -16 -5
-35 -13 -44 -17 -12 -4 -18 1 -24 22 -9 37 -33 63 -59 63 -25 0 -203 -65 -223
-81 -22 -19 -15 -61 28 -175 49 -132 54 -141 78 -149 10 -3 62 10 114 29 141
51 140 50 134 99 -3 23 -8 49 -11 57 -5 12 5 20 38 32 l44 16 16 -39 c9 -22
16 -61 16 -87 0 -70 -29 -93 -191 -153 -181 -66 -235 -64 -274 11 -29 55 -108
286 -113 327 -7 66 32 98 193 155 72 26 139 49 150 51 27 7 65 -1 91 -18z
m-564 -312 c31 -71 79 -179 107 -241 l50 -113 -46 -20 c-25 -11 -47 -18 -48
-17 -1 2 -36 80 -78 173 -41 94 -89 201 -106 238 l-31 68 43 19 c23 11 44 20
47 20 3 0 31 -57 62 -127z m5204 -24 c54 -23 101 -43 102 -45 5 -4 -18 -74
-24 -74 -9 0 -209 83 -217 89 -11 10 13 71 27 71 7 0 57 -19 112 -41z m-5640
-276 c53 -104 99 -190 101 -193 3 -3 62 25 133 63 70 37 130 67 134 67 3 0 14
-17 25 -37 l19 -38 -177 -92 c-97 -51 -179 -89 -182 -85 -4 4 -59 109 -123
234 l-117 227 38 20 c21 11 41 20 45 21 4 0 50 -84 104 -187z m6213 -4 c42
-23 84 -48 94 -57 18 -16 22 -48 8 -71 -14 -21 -51 -4 -51 24 0 18 -13 30 -55
54 -30 17 -61 31 -70 31 -17 0 -32 -49 -18 -59 115 -75 143 -96 148 -111 8
-24 -38 -115 -62 -124 -16 -6 -171 65 -210 96 -15 12 -17 57 -4 77 16 24 60
-1 54 -31 -3 -20 5 -28 63 -57 l67 -35 18 23 c11 13 19 27 19 32 0 5 -34 31
-75 59 -91 61 -102 78 -79 122 22 44 44 68 62 68 9 0 49 -19 91 -41z m-6527
-8 c18 -16 71 -89 118 -162 118 -187 117 -212 -13 -301 -214 -146 -277 -166
-334 -109 -16 15 -66 88 -112 160 -118 187 -115 213 28 308 217 144 254 156
313 104z m6957 -237 c1 -1 -3 -12 -11 -23 -13 -19 -16 -18 -86 25 -40 24 -77
44 -82 44 -5 0 -16 -13 -24 -28 l-15 -29 65 -37 c73 -43 80 -51 64 -71 -10
-12 -22 -7 -76 26 -35 21 -68 39 -73 39 -10 0 -41 -45 -41 -59 0 -5 34 -29 75
-53 75 -43 86 -57 62 -76 -9 -8 -39 6 -112 50 -55 33 -101 61 -102 62 -1 1 32
59 74 128 l77 125 100 -60 c56 -33 103 -62 105 -63z m181 -120 c124 -85 127
-93 69 -174 -27 -37 -34 -42 -64 -38 l-34 4 -3 -63 -3 -63 -22 15 c-20 14 -23
25 -23 83 0 66 -1 67 -36 90 -39 26 -36 27 -71 -30 -19 -31 -31 -34 -56 -15
-16 11 -9 24 65 133 46 68 88 119 93 115 6 -3 44 -29 85 -57z m-7666 -29 c68
-69 106 -133 106 -175 0 -42 -31 -75 -173 -185 -42 -33 -75 -65 -73 -72 3 -6
26 -39 53 -73 l48 -62 -35 -29 c-19 -15 -38 -27 -42 -26 -4 1 -79 94 -167 206
l-161 203 125 99 c187 148 204 159 242 159 27 0 43 -9 77 -45z m4522 -55 c504
-53 990 -171 1454 -354 154 -61 650 -301 650 -315 0 -9 -98 -108 -153 -154
-39 -33 -183 -125 -211 -134 -10 -3 -37 -16 -60 -28 -23 -12 -66 -28 -96 -35
-30 -7 -64 -19 -75 -26 -11 -6 -54 -18 -95 -24 -41 -7 -80 -16 -86 -21 -36
-29 -540 -35 -679 -8 -27 5 -102 18 -166 28 -64 10 -122 22 -129 26 -7 4 -58
18 -114 30 -55 13 -123 31 -151 40 -27 9 -66 21 -85 26 -19 6 -44 14 -55 19
-11 4 -54 19 -95 33 -139 46 -205 72 -218 84 -7 7 -21 13 -31 13 -10 0 -40 11
-66 25 -76 38 -98 40 -157 12 -29 -13 -66 -28 -83 -31 -16 -4 -37 -13 -45 -20
-8 -7 -42 -20 -75 -30 -33 -10 -82 -28 -110 -41 -27 -13 -68 -27 -90 -31 -22
-4 -49 -13 -60 -20 -11 -7 -45 -18 -75 -25 -30 -6 -66 -17 -80 -24 -14 -7 -66
-21 -115 -30 -50 -9 -101 -21 -115 -27 -14 -6 -77 -19 -140 -30 -63 -10 -142
-24 -175 -30 -80 -14 -524 -15 -595 0 -30 6 -99 20 -152 30 -54 11 -103 24
-110 29 -7 6 -38 16 -68 23 -30 6 -66 20 -80 29 -14 10 -38 21 -54 25 -16 4
-41 16 -54 27 -14 10 -30 19 -36 19 -6 0 -36 18 -66 40 -30 22 -70 50 -88 62
-18 13 -62 50 -99 84 l-66 61 264 131 c145 72 329 156 409 188 530 209 1099
336 1672 374 211 14 684 4 904 -20z m3389 -110 c-20 -74 -55 -223 -53 -225 2
-1 52 25 111 58 l108 60 21 -20 20 -20 -136 -72 c-74 -39 -142 -71 -149 -71
-8 0 -20 7 -27 16 -11 12 -8 40 19 157 18 78 34 148 37 155 6 19 54 -18 49
-38z m290 -214 c18 -13 18 -14 -1 -38 -62 -78 -167 -198 -174 -198 -4 0 -14 8
-23 18 -14 16 -9 25 75 125 50 59 94 107 98 107 3 0 15 -6 25 -14z m213 -190
c40 -40 62 -68 62 -83 0 -13 -17 -41 -37 -64 -33 -37 -41 -41 -74 -36 l-37 5
-6 -59 c-7 -63 -13 -69 -40 -40 -16 18 -16 49 0 128 3 16 -5 29 -30 48 l-35
26 -33 -37 c-31 -34 -36 -35 -56 -23 -12 8 -21 17 -20 21 2 4 45 54 97 112
l95 106 25 -22 c14 -12 54 -49 89 -82z m-9244 -109 c-142 -145 -135 -130 -83
-183 l43 -44 108 107 108 108 27 -28 28 -27 -105 -105 -104 -105 53 -54 53
-54 118 121 118 122 31 -29 31 -29 -147 -151 c-81 -83 -152 -152 -158 -153 -5
-2 -93 78 -195 176 l-185 178 149 157 150 157 30 -30 31 -31 -101 -103z m9610
-253 c74 -81 78 -86 62 -102 -17 -16 -21 -13 -80 51 l-62 68 -23 -25 -23 -25
20 -28 c11 -15 34 -41 51 -57 33 -32 39 -51 17 -59 -8 -3 -36 18 -67 49 -29
30 -57 54 -61 54 -4 0 -19 -10 -33 -23 l-27 -23 66 -70 c62 -68 65 -72 47 -88
-17 -15 -22 -11 -101 75 l-83 91 104 98 c57 55 106 99 109 99 3 1 40 -38 84
-85z m-9891 -101 c18 -9 75 -51 128 -94 125 -101 149 -151 115 -232 -12 -30
-229 -309 -244 -314 -6 -2 -372 285 -405 316 -10 10 213 289 255 319 39 27
105 29 151 5z m2417 -228 c37 -132 226 -357 436 -517 323 -248 699 -411 1099
-478 310 -52 536 -165 674 -337 53 -67 105 -168 121 -235 11 -51 13 -118 3
-118 -5 0 -55 10 -113 21 -134 28 -339 30 -450 5 -92 -21 -206 -69 -282 -120
-68 -44 -196 -161 -187 -170 3 -4 35 0 70 9 286 67 639 -74 936 -375 51 -51
91 -95 89 -97 -2 -3 -53 6 -112 18 -122 25 -242 22 -349 -7 -73 -19 -208 -85
-253 -122 l-33 -27 103 0 c172 0 288 -54 424 -196 81 -85 114 -131 177 -249
72 -134 162 -379 196 -535 10 -48 10 -48 55 111 63 219 153 422 248 561 62 90
175 198 252 241 85 48 202 76 293 69 40 -3 73 -2 73 2 0 11 -149 98 -207 120
-138 54 -306 63 -462 26 -35 -9 -66 -13 -69 -10 -10 10 161 175 258 249 97 73
230 148 331 186 131 49 303 63 433 35 38 -8 71 -13 73 -11 2 2 -32 37 -75 77
-134 125 -282 197 -465 225 -134 21 -254 13 -474 -32 -32 -6 -33 -6 -33 28 0
104 72 258 170 362 149 158 339 244 665 301 256 45 426 102 660 220 445 224
771 528 859 798 9 27 23 13 57 -54 76 -151 119 -343 119 -531 0 -356 -154
-700 -451 -1005 -43 -45 -79 -86 -79 -91 0 -13 125 -68 195 -85 93 -23 132
-28 248 -29 59 0 107 -4 107 -8 0 -23 -73 -109 -122 -146 -81 -59 -155 -85
-260 -91 -112 -7 -219 10 -333 52 -49 19 -91 33 -92 31 -1 -1 15 -42 36 -92
85 -197 115 -350 109 -554 -5 -128 -9 -156 -36 -240 -68 -207 -204 -369 -442
-529 -522 -351 -799 -643 -907 -956 -24 -71 -55 -243 -46 -258 10 -17 227 19
355 59 329 104 563 315 673 609 28 72 65 231 65 276 0 14 3 29 7 32 16 16 121
-210 161 -348 56 -191 70 -433 32 -579 -76 -297 -322 -494 -719 -575 -57 -11
-117 -21 -132 -21 -16 0 -29 -5 -29 -10 0 -6 28 -43 63 -83 281 -325 437 -680
437 -996 0 -278 -95 -489 -322 -713 -59 -60 -105 -108 -101 -108 5 0 64 28
133 63 107 53 131 70 167 115 24 29 46 53 50 55 10 3 4 -87 -8 -138 -17 -68
-51 -147 -91 -212 -50 -79 -167 -189 -249 -233 -35 -18 -58 -35 -52 -37 43
-15 261 81 386 169 56 40 24 -3 -76 -98 -166 -160 -324 -257 -502 -309 -272
-80 -526 -16 -737 185 l-79 75 79 58 c121 88 257 212 350 317 81 92 182 232
182 252 0 5 -24 -10 -52 -34 -249 -209 -486 -341 -638 -355 -145 -14 -397 110
-660 326 -47 38 -87 67 -89 65 -8 -8 109 -169 189 -261 85 -97 265 -258 363
-325 32 -22 56 -45 54 -51 -6 -20 -150 -139 -210 -176 -183 -109 -385 -137
-587 -81 -95 26 -278 116 -353 173 -67 51 -278 249 -272 255 2 2 44 -21 92
-51 49 -30 111 -66 139 -80 53 -27 168 -61 186 -55 6 2 -20 22 -58 43 -38 22
-103 73 -145 115 -119 119 -181 247 -194 401 l-6 74 28 -35 c57 -72 99 -103
210 -156 63 -31 117 -54 119 -51 2 2 -30 34 -72 72 -153 137 -279 336 -324
510 -44 168 -34 385 25 575 68 214 215 464 397 671 31 36 55 69 51 73 -3 3
-20 6 -37 6 -36 0 -227 42 -301 66 -27 9 -90 36 -140 59 -397 189 -525 587
-354 1099 32 97 127 306 139 306 4 0 10 -26 14 -57 49 -418 308 -725 726 -861
145 -47 352 -83 364 -64 9 15 -13 156 -36 231 -97 318 -365 606 -908 977 -174
119 -273 210 -345 318 -91 138 -133 267 -142 441 -9 183 21 346 102 550 24 60
42 111 41 112 -2 2 -27 -7 -57 -20 -86 -38 -176 -58 -284 -64 -163 -8 -284 31
-379 124 -36 35 -86 104 -86 119 0 3 24 4 54 1 136 -11 368 34 465 90 l43 25
-79 82 c-148 151 -242 281 -326 452 -137 277 -171 583 -97 875 29 114 108 289
130 289 4 0 13 -20 20 -45z m7772 -7 c77 -95 108 -141 108 -159 0 -22 -49 -72
-93 -95 -37 -20 -58 -7 -122 75 l-47 60 -40 -32 c-39 -31 -40 -31 -54 -12 -8
10 -13 22 -12 26 4 9 211 178 219 178 4 1 22 -18 41 -41z m277 -359 c61 -89
61 -104 -1 -150 -43 -30 -67 -35 -98 -19 -15 8 -21 2 -40 -50 -12 -33 -24 -60
-25 -60 -2 0 -10 11 -19 24 -14 23 -14 29 4 82 25 71 25 73 -3 108 l-23 29
-42 -28 c-34 -23 -45 -25 -57 -15 -8 7 -15 18 -15 24 0 6 53 48 116 93 l117
82 17 -22 c9 -12 40 -56 69 -98z m-8492 89 c-32 -134 -33 -455 -3 -620 21
-112 59 -235 102 -325 l35 -73 -17 -57 c-55 -190 -203 -341 -389 -398 -37 -12
-40 -15 -38 -47 3 -51 39 -140 85 -209 73 -109 207 -195 378 -241 76 -20 108
-23 295 -23 116 0 236 3 268 8 31 4 57 4 57 0 0 -21 -112 -153 -165 -196 -78
-62 -230 -138 -353 -176 -112 -35 -341 -77 -457 -85 -169 -12 -315 -16 -314
-9 0 5 27 21 60 36 60 29 239 187 239 211 0 6 -29 27 -63 46 -91 51 -220 182
-257 261 -46 100 -63 180 -58 279 7 119 33 208 70 229 15 9 54 31 85 49 108
61 252 200 310 300 l25 42 -20 93 c-32 143 -45 303 -39 466 5 145 16 205 56
311 35 91 124 197 108 128z m6084 -20 c123 -167 154 -459 89 -831 -11 -62 -22
-121 -25 -132 -12 -42 128 -214 248 -305 30 -22 85 -57 123 -78 65 -35 70 -40
87 -92 27 -81 33 -229 13 -314 -36 -152 -139 -286 -291 -381 -41 -26 -75 -50
-75 -54 0 -11 141 -146 192 -184 26 -19 61 -38 77 -42 17 -4 34 -11 37 -17 8
-13 -243 -5 -389 12 -432 50 -747 196 -881 409 -32 50 -32 55 -3 48 12 -4 82
-11 155 -17 467 -40 791 110 893 412 28 83 26 94 -18 109 -204 66 -346 212
-396 403 l-15 57 40 85 c45 98 91 267 107 399 19 154 12 404 -15 528 -8 40 11
34 47 -15z m-3422 -33 c92 -22 192 -79 274 -155 l71 -67 51 53 c66 67 159 127
243 156 53 18 88 23 172 23 98 0 115 -3 250 -47 368 -119 623 -170 852 -172
71 -1 128 -5 128 -9 0 -18 -61 -96 -97 -125 -92 -72 -210 -110 -369 -119 -108
-6 -188 2 -397 43 -148 28 -240 30 -340 8 -218 -50 -393 -226 -467 -471 -12
-40 -25 -73 -29 -73 -4 0 -13 23 -19 51 -7 28 -30 88 -51 133 -94 199 -238
322 -424 360 -111 23 -184 20 -373 -16 -223 -42 -415 -46 -539 -10 -92 27
-154 59 -209 111 -31 29 -86 102 -86 113 0 2 60 4 133 4 209 2 436 44 737 137
312 95 359 102 489 72z m4393 -148 c230 -249 391 -455 571 -727 137 -208 233
-378 351 -622 166 -341 283 -668 375 -1039 365 -1473 101 -3034 -727 -4293
-333 -507 -778 -981 -1263 -1346 -807 -607 -1724 -964 -2738 -1065 -206 -20
-203 -20 -166 10 17 14 37 32 45 39 8 8 27 20 43 27 15 7 27 16 27 21 0 4 20
18 45 30 25 12 45 25 45 30 0 4 19 17 43 29 23 12 44 25 47 28 3 4 41 28 85
54 44 26 88 52 97 59 17 11 45 27 144 78 27 14 51 27 54 31 7 7 69 35 98 44
12 3 22 11 22 16 0 5 8 12 18 16 17 6 66 28 227 103 166 77 305 153 426 234
43 29 55 37 139 106 55 45 169 160 195 196 11 16 31 40 45 55 14 15 31 36 37
46 7 10 24 34 38 53 14 19 32 49 40 67 8 17 19 34 24 38 11 6 71 128 99 200 8
22 18 45 22 50 4 6 13 34 20 64 l13 53 24 -28 c13 -16 35 -47 50 -69 14 -22
45 -62 68 -90 23 -27 50 -64 60 -82 20 -34 65 -59 88 -50 19 7 242 276 288
347 20 30 53 82 75 115 21 33 67 116 100 184 50 99 63 119 69 102 3 -11 13
-21 21 -21 8 0 14 -4 14 -9 0 -6 18 -31 40 -56 22 -25 40 -50 40 -55 0 -4 14
-13 30 -19 35 -12 89 8 106 39 13 25 85 119 120 156 16 17 38 47 49 68 11 20
23 36 27 36 4 0 19 21 33 48 15 26 37 65 50 87 14 22 37 65 52 95 16 30 30 57
34 60 3 3 13 23 23 45 9 22 23 52 31 66 8 14 23 58 34 98 11 40 24 78 29 85 5
6 15 41 22 78 14 75 19 77 78 26 18 -15 38 -28 45 -28 7 0 18 -9 25 -20 7 -11
18 -20 25 -20 7 0 27 -14 45 -30 36 -32 91 -41 110 -17 5 6 15 66 21 132 7 66
16 129 21 140 5 11 16 124 25 250 9 127 18 248 22 270 3 22 8 181 10 354 4
249 1 343 -11 450 -27 225 -37 295 -46 306 -4 6 -10 22 -12 38 l-5 27 269 0
c167 0 277 4 289 10 16 9 19 22 19 88 0 60 -10 115 -45 247 -25 94 -53 190
-62 215 -9 25 -22 74 -30 110 -8 36 -20 74 -28 86 -7 12 -17 39 -21 60 -4 21
-14 57 -24 79 -9 22 -27 74 -40 115 -13 41 -27 80 -32 86 -4 6 -15 35 -24 64
-9 30 -22 63 -29 74 -7 12 -16 32 -20 46 -21 71 -174 380 -208 418 -8 9 -18
28 -22 41 -4 13 -23 41 -44 64 l-36 40 -5 722 c-5 693 -6 724 -24 744 -14 16
-31 21 -68 21 -67 0 -185 28 -192 46 -3 8 -13 14 -23 14 -32 1 -112 87 -142
155 -10 22 -15 96 -17 285 -2 233 -16 406 -39 478 -14 44 14 21 127 -101z
m-7826 46 c-3 -21 -13 -120 -23 -221 -13 -146 -14 -208 -6 -305 9 -118 9 -124
-14 -175 -27 -58 -124 -162 -152 -162 -10 0 -24 -7 -31 -15 -7 -8 -16 -12 -21
-9 -5 3 -9 1 -9 -4 0 -10 -118 -32 -169 -32 -17 0 -40 -8 -51 -17 -20 -17 -20
-28 -20 -740 l0 -723 -34 -37 c-18 -21 -43 -56 -55 -78 -12 -22 -33 -58 -46
-80 -13 -22 -34 -59 -45 -82 -11 -23 -25 -45 -30 -48 -4 -3 -11 -18 -15 -35
-3 -16 -14 -39 -24 -52 -10 -13 -25 -47 -35 -76 -9 -29 -27 -76 -41 -105 -13
-29 -29 -70 -36 -92 -6 -22 -15 -42 -18 -45 -4 -3 -16 -34 -26 -70 -10 -36
-22 -67 -26 -70 -6 -5 -18 -44 -80 -250 -12 -41 -30 -93 -40 -115 -10 -22 -21
-62 -24 -90 -4 -27 -15 -70 -25 -95 -33 -87 -70 -264 -70 -337 0 -61 3 -74 19
-83 12 -6 123 -10 290 -10 149 0 271 -4 271 -8 0 -4 -4 -12 -9 -17 -10 -11
-41 -206 -41 -258 0 -18 -5 -38 -11 -44 -16 -16 -23 -597 -10 -768 32 -405 35
-441 72 -739 17 -136 50 -170 117 -119 40 30 61 44 106 71 17 9 40 26 52 37
11 11 30 25 42 32 25 15 26 13 43 -90 7 -43 16 -77 19 -77 4 0 13 -19 20 -42
19 -63 100 -251 115 -268 7 -8 20 -31 29 -50 18 -39 43 -81 93 -155 60 -90 67
-100 98 -137 49 -59 70 -92 67 -107 -2 -7 1 -10 6 -7 6 3 29 -16 52 -44 32
-38 48 -50 70 -50 33 0 34 1 119 107 l65 81 55 -112 c31 -61 65 -125 77 -141
11 -17 25 -41 32 -55 41 -84 325 -444 357 -454 37 -10 60 6 120 85 33 44 84
109 113 145 28 37 52 71 52 77 0 23 12 -4 26 -57 8 -32 23 -71 33 -89 10 -18
24 -50 31 -72 7 -22 18 -47 25 -55 7 -8 20 -31 29 -50 65 -138 270 -392 401
-495 137 -108 216 -162 310 -211 28 -14 73 -39 100 -55 28 -16 61 -34 75 -39
49 -20 76 -32 120 -55 25 -12 62 -28 83 -35 20 -6 37 -15 37 -20 0 -5 23 -16
50 -25 28 -9 50 -20 50 -25 0 -5 10 -12 23 -15 26 -9 280 -146 287 -156 3 -4
24 -15 48 -24 23 -10 42 -21 42 -25 0 -4 13 -13 29 -20 16 -6 38 -20 49 -30
10 -10 39 -28 63 -41 39 -19 105 -64 119 -79 3 -4 22 -16 43 -29 20 -12 37
-26 37 -31 0 -4 13 -13 30 -20 16 -7 35 -19 42 -27 11 -13 3 -14 -67 -8 -479
40 -883 123 -1320 270 -1821 611 -3188 2164 -3569 4056 -156 774 -137 1612 55
2388 146 593 392 1154 726 1661 110 166 260 370 361 490 102 122 285 320 295
320 6 0 7 -15 3 -37z m-1802 -107 c68 -28 276 -158 300 -187 44 -52 36 -86
-49 -234 -132 -228 -152 -235 -347 -121 -164 96 -183 109 -198 146 -19 45 -7
79 71 213 111 189 144 216 223 183z m11223 -68 c28 -32 103 -159 103 -176 0
-29 -22 -51 -103 -100 -120 -74 -127 -72 -201 48 -44 71 -55 111 -38 136 15
24 168 114 193 114 14 0 35 -10 46 -22z m229 -390 c56 -101 61 -114 46 -125
-24 -20 -30 -16 -54 32 l-23 45 -105 -59 c-93 -52 -106 -57 -117 -43 -7 9 -13
21 -13 27 0 6 45 35 100 65 55 30 100 58 100 63 0 5 -10 27 -22 48 -21 38 -21
39 -2 53 10 8 21 13 23 10 2 -2 32 -54 67 -116z m-11832 -73 c20 -8 36 -20 36
-25 0 -6 -16 -42 -36 -81 -19 -39 -33 -76 -31 -83 3 -7 90 -52 193 -100 104
-49 190 -90 192 -91 6 -5 -38 -85 -47 -85 -4 0 -75 32 -157 71 -82 39 -168 80
-192 90 l-42 18 -40 -84 c-21 -47 -41 -85 -45 -85 -5 0 -66 29 -73 35 -3 2
199 435 203 435 2 0 19 -7 39 -15z m11994 -230 c49 -99 51 -105 32 -115 -10
-5 -21 -10 -23 -10 -2 0 -21 36 -41 80 -20 44 -38 80 -41 80 -13 0 -55 -24
-55 -32 0 -5 13 -38 30 -74 16 -37 27 -70 24 -75 -15 -24 -38 -4 -66 59 -16
37 -31 68 -33 70 -4 5 -75 -26 -75 -33 0 -3 18 -42 41 -87 32 -63 38 -83 27
-89 -26 -17 -35 -7 -86 98 l-52 108 122 62 c68 34 128 62 133 62 6 1 34 -46
63 -104z m100 -228 c19 -23 82 -178 82 -202 0 -22 -41 -65 -61 -65 -5 0 -13 9
-20 21 -9 17 -7 24 10 40 22 21 22 20 -18 112 -14 33 -26 47 -40 47 -24 0
-146 -54 -155 -69 -4 -6 6 -41 22 -78 26 -62 30 -68 56 -66 40 3 42 8 22 50
-17 36 -11 52 19 53 12 0 59 -116 51 -128 -3 -5 -30 -17 -61 -27 l-55 -19 -24
24 c-30 31 -86 162 -86 200 0 35 11 44 107 85 83 36 134 43 151 22z m-12142
-193 c131 -47 240 -87 242 -89 2 -2 -4 -21 -14 -41 -18 -36 -26 -40 -253 -129
l-233 -92 181 -64 c197 -70 187 -61 157 -130 l-11 -27 -243 88 c-134 48 -245
90 -248 93 -3 3 3 22 13 42 17 37 24 41 228 121 116 46 219 87 229 92 15 7
-20 23 -155 71 -96 35 -175 64 -177 66 -5 5 30 85 38 85 5 0 116 -39 246 -86z
m12318 -247 c20 -57 36 -108 36 -114 0 -6 -9 -13 -21 -16 -22 -6 -24 -3 -55
97 -20 65 -28 71 -67 57 l-26 -10 29 -80 c25 -68 27 -80 14 -85 -28 -11 -32
-6 -54 62 -13 37 -26 71 -30 76 -5 4 -24 3 -44 -4 l-35 -11 30 -82 c31 -86 31
-107 2 -107 -14 0 -27 26 -57 111 -21 60 -36 112 -34 114 6 7 251 94 264 94 6
1 28 -45 48 -102z m94 -274 c53 -174 53 -185 0 -207 -68 -28 -95 -29 -119 -5
l-22 22 -23 -26 c-12 -14 -29 -36 -38 -48 -18 -26 -22 -24 -31 11 -5 21 2 37
35 78 40 50 41 52 29 92 -7 22 -15 40 -19 40 -4 0 -27 -7 -51 -15 -34 -12 -44
-13 -51 -3 -22 36 -9 45 125 85 72 23 135 41 139 42 3 1 15 -29 26 -66z
m-12817 -49 c4 -2 -11 -74 -33 -160 -21 -86 -37 -158 -34 -161 6 -6 118 -35
121 -31 1 2 18 66 37 143 l35 140 33 -3 c19 -1 36 -5 38 -7 4 -3 -45 -213 -64
-277 -4 -13 8 -20 53 -33 32 -9 65 -18 73 -20 12 -4 23 24 49 128 19 72 38
147 43 165 9 31 11 33 41 27 18 -4 35 -10 40 -14 6 -6 -89 -407 -101 -421 -7
-9 -513 124 -509 135 2 5 26 99 53 208 l49 198 35 -6 c19 -4 38 -9 41 -11z
m4080 -461 c4 -132 -17 -189 -97 -270 -34 -35 -69 -63 -78 -63 -58 0 36 -38
237 -96 27 -8 20 -21 -17 -27 -53 -9 -183 -64 -279 -119 -189 -108 -470 -343
-640 -536 -21 -24 -41 -41 -44 -39 -7 8 13 95 37 159 68 184 288 396 538 522
40 20 72 39 72 42 0 8 -123 64 -142 64 -29 0 -31 19 -3 30 82 31 283 209 364
323 19 26 38 47 43 47 4 0 8 -17 9 -37z m4806 -89 c90 -103 220 -211 289 -240
41 -17 37 -26 -21 -44 -44 -14 -115 -48 -115 -55 0 -3 31 -20 68 -39 231 -116
440 -309 523 -483 30 -63 66 -189 57 -198 -3 -3 -45 36 -94 86 -266 273 -461
424 -689 535 -60 30 -134 59 -162 65 -29 7 -53 15 -53 18 0 4 57 24 128 46 70
21 131 42 136 46 4 4 -5 14 -20 22 -43 23 -112 96 -136 146 -22 46 -37 174
-24 208 7 16 10 15 29 -12 12 -16 50 -62 84 -101z m-8832 -79 c126 -19 233
-35 237 -35 11 0 10 -62 -1 -79 -8 -12 -35 -11 -180 11 -199 29 -195 38 -41
-98 134 -118 133 -120 -51 -204 -76 -35 -137 -65 -136 -67 2 -1 80 -15 173
-29 93 -14 171 -27 172 -29 2 -2 1 -22 -3 -44 -5 -29 -12 -41 -24 -41 -9 0
-121 16 -250 35 -128 19 -237 35 -242 35 -5 0 -9 11 -9 24 0 59 12 68 184 146
91 41 166 78 166 81 0 3 -63 61 -140 128 -77 68 -140 127 -140 131 0 4 3 22 6
39 5 23 12 31 28 31 11 0 124 -16 251 -35z m3065 -104 c-125 -249 -250 -799
-335 -1466 -14 -109 -25 -199 -25 -201 0 -2 131 -4 290 -4 160 0 290 -3 290
-6 0 -3 -9 -17 -19 -30 -66 -84 -111 -411 -111 -806 l0 -160 23 7 c132 41 263
57 441 53 l128 -3 3 -71 c4 -98 77 -363 102 -371 4 -2 17 14 29 35 11 20 84
142 162 271 79 129 141 235 140 236 -2 1 -41 26 -88 54 -385 238 -562 527
-564 921 -1 346 116 701 296 896 85 93 223 173 332 195 28 5 61 12 74 15 12 2
22 0 22 -6 0 -5 -29 -47 -64 -92 -250 -325 -376 -619 -376 -877 0 -310 181
-557 535 -734 102 -51 256 -108 360 -133 39 -9 72 -18 74 -20 2 -2 -20 -49
-47 -106 -98 -199 -156 -381 -183 -578 -18 -134 -16 -400 5 -540 45 -302 161
-631 312 -881 19 -31 34 -61 34 -65 0 -11 -327 -388 -340 -392 -23 -8 -117
155 -164 288 -83 231 -148 626 -162 980 -6 176 -14 260 -23 260 -21 0 -121
-83 -163 -135 -100 -123 -194 -353 -239 -582 -12 -62 -26 -113 -30 -113 -5 0
-26 24 -48 53 -113 152 -158 334 -168 680 -3 114 -7 207 -8 207 -18 0 -145
-50 -191 -76 -124 -68 -248 -193 -321 -324 -15 -27 -32 -50 -38 -50 -20 0 -96
127 -137 228 -53 133 -69 227 -73 437 -4 198 2 274 35 439 11 54 17 103 14
108 -10 16 -150 3 -206 -18 -72 -27 -169 -104 -219 -172 -24 -34 -47 -61 -50
-61 -36 -4 -48 674 -16 874 45 280 127 557 227 764 33 68 60 125 60 127 0 23
-141 -26 -292 -100 -62 -31 -117 -56 -121 -56 -21 0 62 233 124 348 103 194
239 370 435 564 121 120 290 268 306 268 4 0 -10 -36 -32 -79z m6658 17 c109
-89 320 -296 414 -408 156 -185 284 -403 341 -580 33 -103 39 -130 28 -130 -5
0 -64 27 -132 60 -157 76 -279 118 -279 96 0 -2 27 -59 60 -127 163 -341 254
-765 253 -1184 0 -185 -22 -438 -39 -454 -3 -3 -13 5 -22 19 -37 56 -147 160
-200 188 -67 36 -172 58 -226 48 -35 -7 -37 -9 -31 -33 38 -155 49 -255 49
-473 0 -195 -2 -237 -21 -316 -30 -129 -75 -238 -135 -329 -45 -68 -53 -76
-62 -61 -129 214 -264 342 -431 408 -120 47 -111 60 -118 -174 -3 -114 -12
-244 -22 -298 -18 -110 -65 -256 -101 -318 -27 -46 -82 -112 -93 -112 -4 0
-20 60 -36 133 -69 323 -189 558 -336 657 -32 22 -60 40 -62 40 -3 0 -8 -62
-11 -137 -25 -550 -101 -975 -221 -1228 -37 -77 -101 -168 -116 -163 -14 5
-339 381 -339 393 0 6 11 26 23 45 73 108 184 356 242 540 63 202 105 462 105
652 0 281 -90 633 -221 867 -17 29 -28 56 -25 59 4 3 58 20 121 38 264 76 461
182 614 328 163 158 231 311 231 526 -1 256 -109 517 -349 840 -47 63 -88 119
-90 124 -6 16 106 -3 174 -29 273 -102 453 -378 532 -815 25 -141 23 -369 -5
-483 -72 -291 -239 -501 -556 -700 l-76 -47 142 -233 c78 -127 151 -249 162
-269 12 -21 25 -37 30 -35 25 8 98 265 102 360 2 37 6 72 9 77 8 13 211 13
335 0 83 -9 136 -20 228 -46 l22 -6 0 184 c0 340 -35 632 -90 744 -17 34 -30
63 -30 65 0 2 124 3 277 1 152 -2 280 1 285 6 8 8 -7 147 -48 432 -80 555
-194 1020 -303 1240 -22 44 -38 80 -35 80 3 0 40 -28 82 -62z m-9581 -722 c-3
-6 -28 -20 -57 -30 -28 -10 -53 -24 -55 -30 -2 -6 -6 -70 -9 -142 l-6 -130 59
-28 58 -28 -5 -47 c-2 -25 -6 -48 -8 -50 -3 -3 -494 246 -506 258 -3 3 -4 29
-1 58 l5 51 262 109 261 110 3 -45 c2 -24 1 -50 -1 -56z m7539 -133 c9 -96 -1
-242 -20 -287 -32 -77 -124 -138 -232 -156 -72 -12 -184 -2 -191 16 -15 39
121 255 224 356 67 66 177 147 200 148 7 0 14 -29 19 -77z m-2510 -14 c79 -51
169 -135 231 -217 60 -79 143 -228 143 -255 0 -12 -17 -17 -67 -23 -187 -20
-345 65 -373 201 -19 94 -13 325 9 325 4 0 29 -14 57 -31z m-5476 -501 c0
-125 -2 -122 104 -114 50 3 148 9 219 12 l127 7 0 -50 0 -50 -142 -7 c-79 -3
-178 -9 -220 -12 l-77 -7 6 -92 6 -92 -38 -7 c-21 -4 -41 -4 -45 1 -6 6 -31
389 -30 466 0 14 9 17 45 17 l45 0 0 -72z m483 -514 c5 -41 4 -43 -82 -128
l-87 -87 9 -67 c5 -37 13 -71 17 -76 5 -5 47 -3 95 4 99 14 105 11 105 -50 l0
-35 -257 -37 c-141 -21 -258 -37 -259 -35 -5 5 -54 357 -54 389 0 70 45 99
175 113 79 9 111 -4 133 -54 l18 -38 84 78 c47 42 88 74 91 71 4 -4 9 -26 12
-48z m96 -626 c1 -9 -21 -32 -48 -52 l-49 -36 35 -138 35 -139 61 -9 61 -9 13
-45 c7 -25 12 -47 11 -51 -3 -5 -559 99 -566 106 -2 2 -9 25 -16 53 l-14 50
227 182 226 182 12 -38 c6 -22 12 -46 12 -56z m-20 -665 c18 -19 43 -73 75
-166 45 -127 50 -137 70 -131 11 4 49 17 84 29 l63 23 14 -35 c27 -64 57 -48
-313 -178 -89 -32 -164 -56 -165 -54 -2 2 -31 83 -65 179 -90 256 -87 274 64
330 102 38 137 38 173 3z m461 -642 c50 -107 88 -196 86 -199 -8 -7 -471 -221
-473 -218 -2 1 -43 89 -92 194 l-90 192 38 20 38 19 69 -150 c38 -82 72 -149
77 -149 15 0 107 50 107 59 0 4 -27 66 -60 136 -34 70 -59 129 -58 130 2 1 18
10 36 19 l32 17 19 -43 c32 -73 102 -222 106 -227 6 -5 135 51 135 59 0 4 -31
74 -69 156 l-69 149 32 17 c17 9 35 16 39 15 4 -1 48 -89 97 -196z m183 -394
c19 -15 70 -89 129 -190 l96 -166 -225 -132 c-188 -109 -227 -129 -238 -118
-7 8 -52 83 -100 167 -146 253 -136 283 143 429 98 51 139 53 195 10z m5539
-389 c235 -146 572 -254 851 -274 54 -4 95 -10 90 -14 -4 -4 -77 -12 -162 -19
-152 -11 -176 -15 -155 -29 40 -26 234 -187 234 -194 0 -4 -88 -8 -196 -8
l-197 0 114 -117 c112 -116 199 -230 199 -261 0 -12 -7 -10 -27 10 -115 105
-317 187 -433 174 -79 -9 -189 -66 -259 -134 -52 -51 -104 -137 -136 -227 -7
-17 -9 -16 -15 12 -37 162 -228 333 -391 350 -104 10 -265 -49 -391 -145 -38
-28 -68 -46 -68 -40 0 27 104 162 202 263 59 60 108 111 108 113 0 1 -88 2
-196 2 -108 0 -194 4 -192 9 2 6 121 106 237 198 12 9 -19 14 -160 24 -85 7
-158 15 -162 19 -5 4 36 10 90 14 134 10 324 49 468 97 131 44 331 138 410
192 28 19 51 35 52 36 1 1 39 -22 85 -51z"/>
<path d="M10395 17146 c-30 -65 -55 -119 -55 -122 0 -2 48 -4 106 -4 81 0 105
3 101 13 -61 154 -90 223 -93 226 -2 2 -29 -49 -59 -113z"/>
<path d="M9745 17260 c-124 -10 -140 -23 -131 -110 3 -30 8 -92 12 -138 9
-116 9 -116 158 -108 66 4 128 12 138 17 27 14 30 43 20 184 -9 115 -12 131
-32 147 -12 10 -32 17 -44 17 -11 -1 -66 -5 -121 -9z"/>
<path d="M8805 17088 c-18 -76 -45 -222 -42 -225 2 -2 49 6 105 18 l100 21
-75 104 c-41 57 -76 104 -78 104 -3 0 -7 -10 -10 -22z"/>
<path d="M6614 16224 c-114 -71 -139 -95 -130 -126 3 -12 38 -72 78 -133 53
-80 79 -111 96 -113 14 -2 50 13 90 36 112 67 152 100 152 125 0 24 -130 234
-157 255 -26 19 -33 16 -129 -44z"/>
<path d="M13842 15954 c-12 -18 -22 -38 -22 -42 0 -15 111 -84 125 -78 19 7
45 60 37 72 -6 9 -75 58 -107 76 -6 4 -20 -9 -33 -28z"/>
<path d="M6063 15834 c-54 -42 -100 -78 -102 -80 -2 -2 23 -37 56 -78 l60 -75
101 80 c74 58 102 86 102 102 0 25 -84 127 -105 127 -8 0 -58 -34 -112 -76z"/>
<path d="M14554 15391 l-31 -36 52 -47 c29 -27 57 -48 62 -48 15 0 53 45 53
61 0 14 -36 52 -85 90 -19 15 -22 14 -51 -20z"/>
<path d="M5043 14835 c-23 -16 -168 -194 -162 -199 2 -1 64 -50 137 -109 73
-59 134 -107 136 -107 12 0 155 189 161 212 10 40 -11 69 -109 147 -93 74
-122 85 -163 56z"/>
<path d="M15273 14638 l-42 -31 40 -51 c23 -28 47 -54 54 -59 14 -8 75 37 75
55 0 9 -41 66 -79 110 -3 3 -25 -7 -48 -24z"/>
<path d="M15493 14354 l-32 -25 34 -48 c51 -71 56 -73 93 -51 18 11 32 25 32
32 0 17 -72 118 -84 118 -6 0 -25 -12 -43 -26z"/>
<path d="M4478 14038 c-14 -18 -47 -70 -73 -116 -41 -72 -46 -87 -37 -107 10
-21 190 -137 246 -158 32 -12 60 17 121 122 43 76 56 107 51 125 -4 18 -36 42
-118 91 -142 84 -158 88 -190 43z"/>
<path d="M15660 14017 c-37 -24 -65 -49 -64 -58 2 -24 72 -129 86 -129 20 0
138 78 144 94 8 21 -65 136 -85 136 -9 0 -46 -19 -81 -43z"/>
<path d="M16450 12447 c-19 -6 -36 -11 -38 -13 -9 -6 41 -144 52 -144 26 0 76
22 76 33 0 26 -36 131 -45 133 -6 1 -26 -3 -45 -9z"/>
<path d="M3601 10842 l-115 -45 118 -59 c65 -33 119 -58 121 -56 9 9 9 208 0
207 -5 -1 -61 -21 -124 -47z"/>
<path d="M3605 9703 c-11 -2 -30 -6 -41 -8 -34 -7 -36 -31 -18 -163 l17 -124
26 5 c14 3 54 9 89 13 72 8 68 -6 43 152 -11 72 -23 117 -32 123 -14 9 -48 10
-84 2z"/>
<path d="M3791 8967 c-58 -44 -101 -82 -95 -83 18 -6 248 -43 249 -41 1 1 -10
48 -24 104 l-26 101 -104 -81z"/>
<path d="M3906 8427 c-87 -32 -88 -37 -42 -170 21 -61 42 -115 46 -120 3 -4
46 7 94 24 69 26 86 35 81 48 -4 9 -23 61 -42 116 -31 88 -53 126 -72 124 -3
0 -33 -10 -65 -22z"/>
<path d="M4463 7350 c-107 -63 -122 -82 -109 -133 7 -31 116 -217 126 -217 9
0 280 157 293 170 11 10 -110 217 -134 230 -37 20 -75 9 -176 -50z"/>
</g>
</svg>
